<svg height="512pt" viewBox="0 0 512 512" width="512pt" xmlns="http://www.w3.org/2000/svg"><path d="m96 512v-128h-64c-17.671875 0-32-14.328125-32-32v-288c0-17.671875 14.328125-32 32-32h448c17.671875 0 32 14.328125 32 32v288c0 17.671875-14.328125 32-32 32h-187.34375zm0 0" fill="#eacd8b"/><g fill="#fff"><path d="m80 128h128c8.835938 0 16 7.164062 16 16s-7.164062 16-16 16h-128c-8.835938 0-16-7.164062-16-16s7.164062-16 16-16zm0 0"/><path d="m80 192h128c8.835938 0 16 7.164062 16 16s-7.164062 16-16 16h-128c-8.835938 0-16-7.164062-16-16s7.164062-16 16-16zm0 0"/><path d="m80 256h208c8.835938 0 16 7.164062 16 16s-7.164062 16-16 16h-208c-8.835938 0-16-7.164062-16-16s7.164062-16 16-16zm0 0"/></g><path d="m512 128c0 70.691406-57.308594 128-128 128s-128-57.308594-128-128 57.308594-128 128-128 128 57.308594 128 128zm0 0" fill="#e76e54"/><path d="m336 112h96c8.835938 0 16 7.164062 16 16s-7.164062 16-16 16h-96c-8.835938 0-16-7.164062-16-16s7.164062-16 16-16zm0 0" fill="#fff"/></svg>