<?xml version="1.0" encoding="UTF-8" standalone="no"?>
<svg
   xmlns:dc="http://purl.org/dc/elements/1.1/"
   xmlns:cc="http://creativecommons.org/ns#"
   xmlns:rdf="http://www.w3.org/1999/02/22-rdf-syntax-ns#"
   xmlns:svg="http://www.w3.org/2000/svg"
   xmlns="http://www.w3.org/2000/svg"
   xmlns:sodipodi="http://sodipodi.sourceforge.net/DTD/sodipodi-0.dtd"
   xmlns:inkscape="http://www.inkscape.org/namespaces/inkscape"
   enable-background="new 0 0 512 512"
   id="Layer_1"
   version="1.1"
   viewBox="0 0 512 512"
   xml:space="preserve"
   sodipodi:docname="alterar.svg"
   inkscape:version="0.92.4 (5da689c313, 2019-01-14)"><metadata
     id="metadata20"><rdf:RDF><cc:Work
         rdf:about=""><dc:format>image/svg+xml</dc:format><dc:type
           rdf:resource="http://purl.org/dc/dcmitype/StillImage" /></cc:Work></rdf:RDF></metadata><defs
     id="defs18" /><sodipodi:namedview
     pagecolor="#ffffff"
     bordercolor="#666666"
     borderopacity="1"
     objecttolerance="10"
     gridtolerance="10"
     guidetolerance="10"
     inkscape:pageopacity="0"
     inkscape:pageshadow="2"
     inkscape:window-width="1600"
     inkscape:window-height="846"
     id="namedview16"
     showgrid="false"
     inkscape:zoom="0.4609375"
     inkscape:cx="244.0678"
     inkscape:cy="256"
     inkscape:window-x="0"
     inkscape:window-y="26"
     inkscape:window-maximized="1"
     inkscape:current-layer="Layer_1" /><path
     style="fill:#dc5bd5;fill-opacity:1"
     inkscape:connector-curvature="0"
     id="path2"
     d="M 494,256 C 494,387.4 387.4,494 256,494 124.6,494 18,387.4 18,256 18,124.6 124.6,18 256,18 387.4,18 494,124.6 494,256 Z" /><g
     id="g13"><g
       id="g7"><path
         d="M142.9,329l-5,45l45-5    l144-144l-40-40L142.9,329z"
         fill="none"
         stroke="#FFFFFF"
         stroke-linejoin="round"
         stroke-miterlimit="10"
         stroke-width="16"
         id="path5" /></g><g
       id="g11"><path
         d="M337.1,138    c-3.1,0-6.2,1.2-8.6,3.6L307.9,164l40,40l22.6-20.5c4.8-4.8,4.8-12.5,0-17.2l-24.7-24.7C343.2,139.2,340.1,138,337.1,138    L337.1,138z"
         fill="none"
         stroke="#FFFFFF"
         stroke-linejoin="round"
         stroke-miterlimit="10"
         stroke-width="16"
         id="path9" /></g></g></svg>