<svg height="512pt" viewBox="0 0 512 512.001" width="512pt" xmlns="http://www.w3.org/2000/svg"><path d="m10 358h146v144h-146zm0 0" fill="#d8ec84"/><path d="m156 222h200v280h-200zm0 0" fill="#ff6977"/><path d="m356 358h146v144h-146zm0 0" fill="#91def5"/><path d="m256 179.253906-55.707031 40.660156c-8.3125 6.066407-19.523438-2.078124-16.320313-11.859374l21.453125-65.542969-55.980469-40.488281c-8.332031-6.027344-4.070312-19.1875 6.210938-19.1875h69.089844l21.167968-65.496094c3.164063-9.785156 17.007813-9.785156 20.171876 0l21.171874 65.496094h69.089844c10.28125 0 14.539063 13.160156 6.210938 19.1875l-55.984375 40.488281 21.457031 65.542969c3.203125 9.78125-8.011719 17.925781-16.324219 11.859374zm0 0" fill="#ffcb7c"/><path d="m502 348h-136v-126c0-5.523438-4.476562-10-10-10h-17.421875c.054687-2.328125-.277344-4.703125-1.042969-7.054688l-19.1875-58.609374 50.070313-36.210938c7.375-5.335938 10.328125-14.378906 7.527343-23.035156-2.804687-8.660156-10.496093-14.257813-19.601562-14.257813h-61.8125l-18.933594-58.570312c-2.796875-8.664063-10.492187-14.261719-19.597656-14.261719s-16.800781 5.597656-19.601562 14.265625l-18.933594 58.570313h-61.8125c-9.101563 0-16.792969 5.59375-19.597656 14.253906-2.800782 8.660156.152343 17.699218 7.527343 23.035156l50.070313 36.210938-19.1875 58.609374c-.769532 2.351563-1.097656 4.730469-1.046875 7.054688h-17.417969c-5.523438 0-10 4.476562-10 10v126h-136c-5.523438 0-10 4.476562-10 10v144c0 5.523438 4.476562 10 10 10h492c5.523438 0 10-4.476562 10-10v-32c0-5.523438-4.476562-10-10-10s-10 4.476562-10 10v22h-126v-124h126v22c0 5.523438 4.476562 10 10 10s10-4.476562 10-10v-32c0-5.523438-4.476562-10-10-10zm-308.523438-136.835938 21.453126-65.542968c1.355468-4.132813-.121094-8.667969-3.644532-11.214844l-55.980468-40.484375c-.246094-.175781-.355469-.257813-.21875-.671875.132812-.414062.269531-.414062.570312-.414062h69.089844c4.335937 0 8.179687-2.800782 9.511718-6.925782l21.171876-65.496094c.09375-.285156.136718-.414062.570312-.414062.4375 0 .476562.128906.570312.414062l21.171876 65.496094c1.332031 4.125 5.175781 6.921875 9.515624 6.921875h69.089844c.296875 0 .433594 0 .570313.414063.132812.417968.023437.496094-.21875.671875l-55.984375 40.488281c-3.523438 2.546875-4.996094 7.082031-3.644532 11.214844l21.457032 65.542968c.089844.285157.132812.414063-.21875.671876-.351563.257812-.464844.175781-.707032 0l-55.707031-40.660157c-1.753906-1.28125-3.824219-1.921875-5.894531-1.921875s-4.140625.640625-5.898438 1.921875l-55.703124 40.660157c-.246094.175781-.355469.257812-.707032 0-.351562-.253907-.308594-.386719-.214844-.671876zm62.523438-19.53125 27.902344 20.367188h-55.804688zm-236 176.367188h126v124h-126zm146-10v-126h27.355469c.230469.007812.460937.027344.691406.027344.226563 0 .457031-.019532.6875-.027344h122.535156c.457031.015625.910157.015625 1.367188 0h27.363281v260h-180zm0 0"/><path d="m448 34.414062c5.523438 0 10-4.476562 10-10v-14.414062c0-5.523438-4.476562-10-10-10s-10 4.476562-10 10v14.414062c0 5.523438 4.476562 10 10 10zm0 0"/><path d="m448 100c5.523438 0 10-4.476562 10-10v-14.414062c0-5.523438-4.476562-10-10-10s-10 4.476562-10 10v14.414062c0 5.523438 4.476562 10 10 10zm0 0"/><path d="m473.585938 60h14.414062c5.523438 0 10-4.476562 10-10s-4.476562-10-10-10h-14.414062c-5.523438 0-10 4.476562-10 10s4.476562 10 10 10zm0 0"/><path d="m408 60h14.414062c5.523438 0 10-4.476562 10-10s-4.476562-10-10-10h-14.414062c-5.523438 0-10 4.476562-10 10s4.476562 10 10 10zm0 0"/><path d="m64 159.761719c5.523438 0 10-4.480469 10-10v-14.414063c0-5.523437-4.476562-10-10-10s-10 4.476563-10 10v14.414063c0 5.519531 4.476562 10 10 10zm0 0"/><path d="m64 225.347656c5.523438 0 10-4.480468 10-10v-14.417968c0-5.523438-4.476562-10-10-10s-10 4.476562-10 10v14.417968c0 5.519532 4.476562 10 10 10zm0 0"/><path d="m89.585938 185.347656h14.414062c5.523438 0 10-4.480468 10-10 0-5.523437-4.476562-10-10-10h-14.414062c-5.523438 0-10 4.476563-10 10 0 5.519532 4.476562 10 10 10zm0 0"/><path d="m24 185.347656h14.414062c5.523438 0 10-4.480468 10-10 0-5.523437-4.476562-10-10-10h-14.414062c-5.523438 0-10 4.476563-10 10 0 5.519532 4.476562 10 10 10zm0 0"/><path d="m502 420c-2.628906 0-5.210938 1.070312-7.070312 2.929688-1.859376 1.859374-2.929688 4.441406-2.929688 7.070312s1.070312 5.210938 2.929688 7.070312c1.859374 1.859376 4.441406 2.929688 7.070312 2.929688s5.210938-1.070312 7.070312-2.929688c1.859376-1.859374 2.929688-4.441406 2.929688-7.070312s-1.070312-5.210938-2.929688-7.070312c-1.859374-1.859376-4.441406-2.929688-7.070312-2.929688zm0 0"/></svg>